<?xml version="1.0" encoding="utf-8"?>
<!-- Generator: Adobe Illustrator 19.1.1, SVG Export Plug-In . SVG Version: 6.00 Build 0)  -->
<svg version="1.1" id="Layer_1" xmlns="http://www.w3.org/2000/svg" xmlns:xlink="http://www.w3.org/1999/xlink" x="0px" y="0px"
	 viewBox="244 -244 1000 1000" style="enable-background:new 244 -244 1000 1000;" xml:space="preserve">
<style type="text/css">
	.st0{fill:#FFFFFF;}
</style>
<path class="st0" d="M244,256c0-90.7,22.3-174.3,67-251c44.7-76.7,105.3-137.3,182-182c76.7-44.7,160.3-67,251-67
	c90.7,0,174.3,22.3,251,67c76.7,44.7,137.3,105.3,182,182c44.7,76.7,67,160.3,67,251s-22.3,174.3-67,251
	c-44.7,76.7-105.3,137.3-182,182c-76.7,44.7-160.3,67-251,67c-90.7,0-174.3-22.3-251-67c-76.7-44.7-137.3-105.3-182-182
	C266.3,430.3,244,346.7,244,256z M327,256c0,104,35,195.7,105,275c32-62.7,82.7-122.3,152-179c69.3-56.7,137-92.3,203-107
	c-10-23.3-19.7-44.3-29-63c-114.7,36.7-238.7,55-372,55c-26,0-45.3-0.3-58-1c0,2.7-0.2,6-0.5,10C327.2,250,327,253.3,327,256z
	 M340,153c14.7,1.3,36.3,2,65,2c111.3,0,217-15,317-45C671.3,20,615.7-55,555-115C502.3-88.3,457.2-51.3,419.5-4
	C381.8,43.3,355.3,95.7,340,153z M489,585c75.3,58.7,160.3,88,255,88c49.3,0,98.3-9.3,147-28c-13.3-114-39.3-224.3-78-331
	c-61.3,13.3-123.2,47-185.5,101C565.2,469,519,525.7,489,585z M642-147C700.7-86.3,755-10.7,805,80c90.7-38,159-86.3,205-145
	c-77.3-64-166-96-266-96C710-161,676-156.3,642-147z M841,151c10,21.3,21.3,48.3,34,81c49.3-4.7,103-7,161-7c41.3,0,82.3,1,123,3
	c-5.3-90.7-38-171.3-98-242C1017.7,50.7,944.3,105.7,841,151z M900,302c34,98.7,57,200,69,304c52.7-34,95.7-77.7,129-131
	c33.3-53.3,53.3-111,60-173c-48.7-3.3-93-5-133-5C988.3,297,946.7,298.7,900,302z"/>
</svg>
