<?xml version="1.0" encoding="iso-8859-1"?>
<!-- Generator: Adobe Illustrator 19.1.1, SVG Export Plug-In . SVG Version: 6.00 Build 0)  -->
<svg version="1.1" id="Layer_1" xmlns="http://www.w3.org/2000/svg" xmlns:xlink="http://www.w3.org/1999/xlink" x="0px" y="0px"
	 viewBox="-239 241 32 32" style="enable-background:new -239 241 32 32;" xml:space="preserve">
<g id="_x36__6_">
	<g>
		<path style="fill:#FFFFFF;" d="M-215,259v-8c0-5.5-4.5-10-10-10s-10,4.5-10,10v8l-4,8h9.1c0.5,2.3,2.5,4,4.9,4s4.4-1.7,4.9-4h9.1
			L-215,259z M-225,269c-1.3,0-2.4-0.8-2.8-2h5.6C-222.6,268.2-223.7,269-225,269z M-236,265l3-6v-8c0-4.4,3.6-8,8-8s8,3.6,8,8v8
			l3,6H-236z"/>
	</g>
</g>
</svg>
