<?xml version="1.0" encoding="iso-8859-1"?>
<!-- Generator: Adobe Illustrator 19.1.1, SVG Export Plug-In . SVG Version: 6.00 Build 0)  -->
<svg version="1.1" id="Line_2" xmlns="http://www.w3.org/2000/svg" xmlns:xlink="http://www.w3.org/1999/xlink" x="0px" y="0px"
	 viewBox="-239 241 32 32" style="enable-background:new -239 241 32 32;" xml:space="preserve">
<g id="_x31_0_20_">
	<g>
		<path style="fill:#FFFFFF;" d="M-214,259c1.7,0,3-1.3,3-3c0-1.7-1.3-3-3-3s-3,1.3-3,3C-217,257.7-215.7,259-214,259z M-215,255h2
			v2h-2V255z M-214,267c1.7,0,3-1.3,3-3s-1.3-3-3-3s-3,1.3-3,3S-215.7,267-214,267z M-215,263h2v2h-2V263z M-222,267
			c1.7,0,3-1.3,3-3s-1.3-3-3-3s-3,1.3-3,3S-223.7,267-222,267z M-223,263h2v2h-2V263z M-211,241h-22c-2.2,0-4,1.8-4,4v24
			c0,2.2,1.8,4,4,4h22c2.2,0,4-1.8,4-4v-24C-207,242.8-208.8,241-211,241z M-209,269c0,1.1-0.9,2-2,2h-22c-1.1,0-2-0.9-2-2v-20h26
			V269z M-209,247h-26v-2c0-1.1,0.9-2,2-2h22c1.1,0,2,0.9,2,2V247z M-222,259c1.7,0,3-1.3,3-3c0-1.7-1.3-3-3-3s-3,1.3-3,3
			C-225,257.7-223.7,259-222,259z M-223,255h2v2h-2V255z M-230,267c1.7,0,3-1.3,3-3s-1.3-3-3-3s-3,1.3-3,3S-231.7,267-230,267z
			 M-231,263h2v2h-2V263z M-230,259c1.7,0,3-1.3,3-3c0-1.7-1.3-3-3-3s-3,1.3-3,3C-233,257.7-231.7,259-230,259z M-231,255h2v2h-2
			V255z"/>
	</g>
</g>
</svg>
