<?xml version="1.0" encoding="utf-8"?>
<!-- Generator: Adobe Illustrator 19.1.1, SVG Export Plug-In . SVG Version: 6.00 Build 0)  -->
<svg version="1.1" id="Capa_1" xmlns="http://www.w3.org/2000/svg" xmlns:xlink="http://www.w3.org/1999/xlink" x="0px" y="0px"
	 viewBox="-40 41.9 430.1 430.1" style="enable-background:new -40 41.9 430.1 430.1;" xml:space="preserve">
<style type="text/css">
	.st0{fill:#FFFFFF;}
</style>
<g>
	<path id="LinkedIn" class="st0" d="M390.1,303.4v159h-92.2V314.1c0-37.3-13.3-62.7-46.7-62.7c-25.5,0-40.6,17.1-47.3,33.7
		c-2.4,5.9-3.1,14.2-3.1,22.5v154.9h-92.2c0,0,1.2-251.3,0-277.3h92.2v39.3c-0.2,0.3-0.4,0.6-0.6,0.9h0.6v-0.9
		c12.3-18.9,34.1-45.8,83.1-45.8C344.6,178.6,390.1,218.2,390.1,303.4z M12.2,51.4C-19.4,51.4-40,72.1-40,99.3
		c0,26.6,20,47.9,51,47.9h0.6c32.2,0,52.2-21.3,52.2-47.9C63.1,72.1,43.7,51.4,12.2,51.4z M-34.5,462.4h92.2V185.1h-92.2V462.4z"/>
</g>
</svg>
